<svg xmlns="http://www.w3.org/2000/svg" viewBox="0 0 64 64">
<defs>
<radialGradient id="bg" cx="50%" cy="42%" r="70%"><stop offset="0" stop-color="#0f3a6b"/><stop offset=".55" stop-color="#06203d"/><stop offset="1" stop-color="#020a14"/></radialGradient>
<linearGradient id="ink" x1="0" y1="0" x2="0" y2="1"><stop offset="0" stop-color="#ffffff"/><stop offset="1" stop-color="#bcdcff"/></linearGradient>
<filter id="glow" x="-30%" y="-30%" width="160%" height="160%"><feGaussianBlur stdDeviation="2.2"/></filter>
</defs>
<rect width="64" height="64" rx="15" fill="url(#bg)"/>
<g fill="#cce6ff"><circle cx="9" cy="11" r="1" opacity=".55"/><circle cx="44" cy="8.5" r=".8" opacity=".4"/><circle cx="57" cy="50" r="1" opacity=".5"/><circle cx="7" cy="53" r=".8" opacity=".35"/><circle cx="31" cy="7.5" r=".7" opacity=".3"/></g>
<path d="M9.05 43.91 18.06 17.67H25.12L33.63 43.93L35.8 44.35V46.93H23.45V44.35L26.24 43.93L24.89 39.25H15.52L14.2 43.99L17.26 44.35V46.93H6.81L6.77 44.35ZM24.06 36.25 20.97 24.53 20.42 21.77 19.77 24.55 16.3 36.25ZM45.74 47.36Q43.33 47.36 41.49 46.95Q39.64 46.54 38.37 46.12Q37.1 45.7 36.39 45.64L36.72 38.33H40.39L41.35 43.31Q41.62 43.62 42.22 43.93Q42.82 44.25 43.71 44.46Q44.6 44.68 45.74 44.68Q47.39 44.68 48.44 44.18Q49.5 43.68 50.01 42.77Q50.52 41.86 50.52 40.66Q50.52 39.33 49.71 38.36Q48.9 37.39 47.43 36.55Q45.96 35.7 43.94 34.78Q42.82 34.25 41.54 33.49Q40.25 32.72 39.11 31.63Q37.98 30.53 37.26 29.01Q36.55 27.49 36.55 25.45Q36.55 23.35 37.72 21.52Q38.9 19.69 41.27 18.56Q43.64 17.44 47.23 17.44Q48.93 17.44 50.24 17.63Q51.54 17.83 52.51 18.09Q53.48 18.36 54.17 18.57Q54.85 18.79 55.28 18.83L55.05 25.8H51.48L50.6 21Q50.44 20.79 49.96 20.57Q49.48 20.36 48.78 20.21Q48.07 20.06 47.19 20.06Q45.66 20.06 44.72 20.55Q43.78 21.04 43.34 21.84Q42.9 22.63 42.9 23.57Q42.9 25.14 43.87 26.23Q44.84 27.31 46.44 28.19Q48.03 29.06 49.88 29.98Q51.05 30.53 52.34 31.27Q53.62 32.02 54.73 33.03Q55.83 34.04 56.53 35.39Q57.23 36.74 57.23 38.54Q57.23 40.05 56.65 41.61Q56.07 43.17 54.76 44.47Q53.44 45.78 51.23 46.57Q49.01 47.36 45.74 47.36Z" fill="#2b6fd6" opacity=".85" filter="url(#glow)"/>
<path d="M9.05 43.91 18.06 17.67H25.12L33.63 43.93L35.8 44.35V46.93H23.45V44.35L26.24 43.93L24.89 39.25H15.52L14.2 43.99L17.26 44.35V46.93H6.81L6.77 44.35ZM24.06 36.25 20.97 24.53 20.42 21.77 19.77 24.55 16.3 36.25ZM45.74 47.36Q43.33 47.36 41.49 46.95Q39.64 46.54 38.37 46.12Q37.1 45.7 36.39 45.64L36.72 38.33H40.39L41.35 43.31Q41.62 43.62 42.22 43.93Q42.82 44.25 43.71 44.46Q44.6 44.68 45.74 44.68Q47.39 44.68 48.44 44.18Q49.5 43.68 50.01 42.77Q50.52 41.86 50.52 40.66Q50.52 39.33 49.71 38.36Q48.9 37.39 47.43 36.55Q45.96 35.7 43.94 34.78Q42.82 34.25 41.54 33.49Q40.25 32.72 39.11 31.63Q37.98 30.53 37.26 29.01Q36.55 27.49 36.55 25.45Q36.55 23.35 37.72 21.52Q38.9 19.69 41.27 18.56Q43.64 17.44 47.23 17.44Q48.93 17.44 50.24 17.63Q51.54 17.83 52.51 18.09Q53.48 18.36 54.17 18.57Q54.85 18.79 55.28 18.83L55.05 25.8H51.48L50.6 21Q50.44 20.79 49.96 20.57Q49.48 20.36 48.78 20.21Q48.07 20.06 47.19 20.06Q45.66 20.06 44.72 20.55Q43.78 21.04 43.34 21.84Q42.9 22.63 42.9 23.57Q42.9 25.14 43.87 26.23Q44.84 27.31 46.44 28.19Q48.03 29.06 49.88 29.98Q51.05 30.53 52.34 31.27Q53.62 32.02 54.73 33.03Q55.83 34.04 56.53 35.39Q57.23 36.74 57.23 38.54Q57.23 40.05 56.65 41.61Q56.07 43.17 54.76 44.47Q53.44 45.78 51.23 46.57Q49.01 47.36 45.74 47.36Z" fill="url(#ink)"/>
<circle cx="54" cy="11.5" r="2.4" fill="#e8a921"/>
<rect x=".5" y=".5" width="63" height="63" rx="14.5" fill="none" stroke="#cce6ff" stroke-opacity=".18"/>
</svg>
